<svg xmlns="http://www.w3.org/2000/svg" viewBox="0 0 14.79 11.86"><defs><style>.cls-1{fill:#42b7e8;}</style></defs><title>Ресурс 3</title><g id="Слой_2" data-name="Слой 2"><g id="Layer_1" data-name="Layer 1"><path class="cls-1" d="M6.1,11.86A7.82,7.82,0,0,1,2.68,11,4.57,4.57,0,0,1,0,7.33.39.39,0,0,1,.11,7,3.43,3.43,0,0,1,2,6.64c0-.84.18-3,.9-3.48.33-.21,1.09,0,1.71.3C5.19,2.34,6.49,0,7.36,0h0C8.4,0,9.6,2.79,10,3.74c.5-.27,1.49-.73,1.92-.49.74.43.89,2.55.92,3.58,1.23,0,1.89.16,1.95.57a3,3,0,0,1-1.59,2.84c-1.72,1.24-4.48,1.91-5.57,1.35l-.07,0-.07,0-.17.1A2.56,2.56,0,0,1,6.1,11.86ZM2.1,7C1,7,.42,7.19.38,7.3a4.3,4.3,0,0,0,2.48,3.31c1.64.88,3.53,1.06,4.23.69ZM7.89,11.3c1,.35,3.43-.19,5.07-1.37a2.78,2.78,0,0,0,1.43-2.48c0-.11-.58-.27-1.66-.24Zm4-7.56L8,10.69,12.44,7A7.85,7.85,0,0,0,11.87,3.74Zm-9.48,3,4.5,3.87L3,3.63A7.64,7.64,0,0,0,2.39,6.76Zm5.2-1,.07,4.81,3.87-7A4.83,4.83,0,0,0,10,4.17l-.13.08ZM3.3,3.46l4,7.09L7.21,5.73,4.6,3.86h0A4.49,4.49,0,0,0,3.3,3.46Zm4.22-3,.07,4.89L9.65,3.93C9.13,2.61,8.18.72,7.52.42ZM5,3.64,7.21,5.26,7.14.45A10.52,10.52,0,0,0,5,3.64ZM4.72,3.5Z"/></g></g></svg>